# xmcd CD database file
#
# Track frame offsets:
#	150
#	26840
#	87229
#	110397
#	148292
#	171434
#	188022
#	192107
#	215734
#	236526
#	272156
#
# Disc length: 3959 seconds
#
# Revision: 0
# Processed by: cddbd v1.5.2PL0 Copyright (c) Steve Scherf et al.
# Submitted via: CDex 1.70beta2
#
DISCID=a30f750b
DTITLE=Rosi Hertlein - Improvising Chamber Ensemble - Two Letters I'll Keep
DYEAR=2001
DGENRE=Jazz
TTITLE0=The Year Of Death
TTITLE1=The Arrow Of Time
TTITLE2=Broken Wheel Bop
TTITLE3=Two Letters I'll Keep
TTITLE4=Ripe, Sweet, Rapture
TTITLE5=Paramour
TTITLE6=Melancholia
TTITLE7=Hold Your Breath
TTITLE8=Five Forms
TTITLE9=Not In My Name (Year Of Death Circle)
TTITLE10=The Unsung
EXTD=YEAR: 2001
EXTT0=
EXTT1=
EXTT2=
EXTT3=
EXTT4=
EXTT5=
EXTT6=
EXTT7=
EXTT8=
EXTT9=
EXTT10=
PLAYORDER=
